<svg width="29" height="22" viewBox="0 0 29 22" fill="none" xmlns="http://www.w3.org/2000/svg">
<path d="M24.588 1.87955C22.8092 1.07735 20.9024 0.484417 18.9085 0.147259C18.8907 0.14385 18.8723 0.146047 18.8559 0.153546C18.8394 0.161045 18.8257 0.173474 18.8166 0.189113C18.5725 0.618117 18.3004 1.17733 18.1097 1.61913C15.995 1.30317 13.845 1.30317 11.7302 1.61913C11.5179 1.1295 11.2784 0.652094 11.0129 0.189113C11.0039 0.173282 10.9903 0.160571 10.9739 0.152677C10.9574 0.144783 10.939 0.142082 10.921 0.144934C8.92824 0.482091 7.02149 1.07502 5.24146 1.87839C5.22615 1.88481 5.21316 1.89577 5.20426 1.90978C1.58607 7.22873 0.59433 12.4163 1.08148 17.5388C1.08284 17.5513 1.08673 17.5635 1.09293 17.5745C1.09912 17.5854 1.10749 17.5951 1.11752 17.6027C3.22936 19.1402 5.58484 20.3114 8.08531 21.0673C8.10275 21.0727 8.12139 21.0727 8.13881 21.0673C8.15623 21.0619 8.17163 21.0513 8.18298 21.0371C8.72012 20.3163 9.19914 19.5547 9.60839 18.7549C9.63281 18.7084 9.60956 18.6526 9.56072 18.634C8.80965 18.3511 8.08192 18.0098 7.38423 17.6132C7.3717 17.606 7.36113 17.5959 7.35349 17.5836C7.34585 17.5714 7.34136 17.5574 7.34044 17.543C7.33952 17.5286 7.34219 17.5142 7.34821 17.5011C7.35423 17.488 7.36341 17.4765 7.37493 17.4679C7.52143 17.3597 7.66792 17.247 7.80744 17.1342C7.82 17.124 7.83513 17.1176 7.85114 17.1155C7.86715 17.1135 7.88342 17.1159 7.89813 17.1226C12.4639 19.1734 17.4086 19.1734 21.9209 17.1226C21.9357 17.1155 21.9521 17.1128 21.9683 17.1146C21.9846 17.1165 22 17.1228 22.0128 17.133C22.1523 17.247 22.2976 17.3597 22.4453 17.4679C22.4569 17.4764 22.4662 17.4876 22.4724 17.5006C22.4787 17.5136 22.4815 17.528 22.4809 17.5424C22.4802 17.5568 22.4759 17.5708 22.4685 17.5831C22.4611 17.5955 22.4507 17.6058 22.4383 17.6132C21.743 18.0131 21.0198 18.3514 20.2606 18.6328C20.249 18.637 20.2384 18.6437 20.2295 18.6524C20.2206 18.661 20.2137 18.6715 20.2092 18.683C20.2047 18.6946 20.2027 18.707 20.2033 18.7194C20.204 18.7317 20.2073 18.7439 20.213 18.7549C20.6315 19.5536 21.1105 20.3139 21.6372 21.0359C21.6482 21.0507 21.6634 21.0618 21.6809 21.0676C21.6984 21.0735 21.7172 21.0737 21.7349 21.0685C24.2396 20.3147 26.599 19.1429 28.7131 17.6027C28.7234 17.5955 28.7321 17.5862 28.7385 17.5753C28.7449 17.5645 28.749 17.5524 28.7503 17.5399C29.3317 11.6176 27.776 6.47187 24.6241 1.9121C24.6164 1.89729 24.6036 1.88573 24.588 1.87955ZM10.2909 14.4195C8.91661 14.4195 7.78302 13.1767 7.78302 11.6525C7.78302 10.1271 8.89452 8.88545 10.2909 8.88545C11.6977 8.88545 12.8208 10.1376 12.7987 11.6525C12.7987 13.1778 11.6872 14.4195 10.2909 14.4195ZM19.563 14.4195C18.1876 14.4195 17.0552 13.1767 17.0552 11.6525C17.0552 10.1271 18.1655 8.88545 19.563 8.88545C20.9699 8.88545 22.093 10.1376 22.0709 11.6525C22.0709 13.1778 20.971 14.4195 19.563 14.4195Z" fill="black"/>
</svg>
