<svg width="20" height="15" viewBox="0 0 20 15" fill="none" xmlns="http://www.w3.org/2000/svg">
<path d="M16.9307 1.24404C15.6558 0.669081 14.2892 0.244109 12.86 0.00245831C12.8473 1.50672e-05 12.8341 0.00158958 12.8223 0.00696413C12.8105 0.0123387 12.8007 0.0212473 12.7942 0.0324563C12.6192 0.339936 12.4242 0.740743 12.2875 1.05739C10.7718 0.830935 9.23089 0.830935 7.71518 1.05739C7.56296 0.706463 7.39131 0.364288 7.20103 0.0324563C7.19458 0.0211093 7.18482 0.0119992 7.17306 0.0063415C7.16129 0.000683842 7.14809 -0.00125226 7.13519 0.000791676C5.7069 0.242442 4.34028 0.667415 3.06448 1.24321C3.0535 1.24781 3.0442 1.25566 3.03781 1.26571C0.444554 5.07796 -0.266258 8.79605 0.0828981 12.4675C0.0838697 12.4765 0.086661 12.4852 0.091102 12.493C0.095543 12.5009 0.101541 12.5078 0.108731 12.5133C1.62235 13.6153 3.31059 14.4547 5.10275 14.9965C5.11525 15.0003 5.12861 15.0003 5.1411 14.9964C5.15358 14.9926 5.16461 14.985 5.17275 14.9748C5.55774 14.4582 5.90106 13.9124 6.19439 13.3391C6.21189 13.3058 6.19522 13.2658 6.16022 13.2524C5.62191 13.0497 5.10032 12.8051 4.60027 12.5208C4.59128 12.5157 4.58371 12.5084 4.57823 12.4996C4.57275 12.4908 4.56954 12.4808 4.56888 12.4705C4.56822 12.4602 4.57013 12.4499 4.57445 12.4405C4.57876 12.4311 4.58534 12.4229 4.5936 12.4166C4.6986 12.3391 4.80359 12.2583 4.90359 12.1775C4.91259 12.1702 4.92344 12.1656 4.93491 12.1641C4.94639 12.1627 4.95805 12.1644 4.96859 12.1692C8.241 13.6391 11.7851 13.6391 15.0191 12.1692C15.0297 12.1641 15.0415 12.1621 15.0531 12.1635C15.0648 12.1648 15.0758 12.1694 15.085 12.1767C15.185 12.2583 15.2891 12.3391 15.395 12.4166C15.4033 12.4227 15.41 12.4308 15.4144 12.4401C15.4189 12.4495 15.421 12.4597 15.4205 12.4701C15.42 12.4804 15.4169 12.4904 15.4116 12.4993C15.4063 12.5081 15.3988 12.5155 15.39 12.5208C14.8916 12.8075 14.3733 13.0499 13.8292 13.2516C13.8208 13.2546 13.8132 13.2594 13.8068 13.2656C13.8005 13.2718 13.7955 13.2793 13.7923 13.2876C13.789 13.2959 13.7876 13.3048 13.7881 13.3136C13.7886 13.3225 13.7909 13.3312 13.795 13.3391C14.095 13.9115 14.4383 14.4565 14.8158 14.974C14.8237 14.9846 14.8346 14.9925 14.8471 14.9967C14.8596 15.0009 14.8732 15.0011 14.8858 14.9973C16.681 14.457 18.372 13.6172 19.8873 12.5133C19.8947 12.5081 19.9009 12.5014 19.9055 12.4937C19.9101 12.4859 19.913 12.4773 19.914 12.4683C20.3306 8.22359 19.2157 4.53549 16.9566 1.26738C16.951 1.25675 16.9419 1.24848 16.9307 1.24404ZM6.68354 10.2318C5.69857 10.2318 4.88609 9.34101 4.88609 8.24858C4.88609 7.15532 5.68274 6.26538 6.68354 6.26538C7.69184 6.26538 8.49682 7.16282 8.48099 8.24858C8.48099 9.34184 7.68435 10.2318 6.68354 10.2318ZM13.3292 10.2318C12.3434 10.2318 11.5317 9.34101 11.5317 8.24858C11.5317 7.15532 12.3275 6.26538 13.3292 6.26538C14.3375 6.26538 15.1425 7.16282 15.1266 8.24858C15.1266 9.34184 14.3383 10.2318 13.3292 10.2318Z" fill="white"/>
</svg>
