<svg width="1357" height="2679" viewBox="0 0 1357 2679" fill="none" xmlns="http://www.w3.org/2000/svg">
<path d="M-3 2H215C231.569 2 245 15.4315 245 32V575.764C245 592.333 258.431 605.764 275 605.764H1325C1341.57 605.764 1355 619.196 1355 635.764V809.231C1355 825.799 1341.57 839.231 1325 839.231H275C258.431 839.231 245 852.662 245 869.231V1036.18C245 1052.75 258.431 1066.18 275 1066.18H1325C1341.57 1066.18 1355 1079.62 1355 1096.18V1271.92C1355 1288.39 1341.73 1301.77 1325.27 1301.92L274.729 1311.41C258.267 1311.55 245 1324.94 245 1341.4V1491.59C245 1508.16 258.431 1521.59 275 1521.59H1325C1341.57 1521.59 1355 1535.03 1355 1551.59V1772.5C1355 1789.07 1341.57 1802.5 1325 1802.5H275C258.431 1802.5 245 1815.93 245 1832.5V2678.5" stroke="white" stroke-opacity="0.12" stroke-width="3"/>
</svg>
